<svg xmlns="http://www.w3.org/2000/svg" viewBox="0 0 369.64 79.37"><defs><style>.cls-1{fill:#fff}</style></defs><g id="Layer_2" data-name="Layer 2"><g id="Layer_1-2" data-name="Layer 1"><path class="cls-1" d="M142.48 2.09c-2.85-2.71-7.2-2.23-10.75-1.6a34.86 34.86 0 00-13.84 5.8c-.76.53 1 2.45 1.85 1.85a33.81 33.81 0 0110.51-4.92 31.89 31.89 0 015.81-1 9.2 9.2 0 014.74.53c3.54 1.74.49 7.37-1 9.51a33.16 33.16 0 01-7.8 7.61 52 52 0 01-9.44 5.48 35.56 35.56 0 018.91-16.09c.7-.73-1.16-2.57-1.85-1.84A36.42 36.42 0 00120 26.45a.57.57 0 00-.1.62c0 .32-.1.64-.14 1-.12.9 1.94 2.36 2.11 1.07l.12-.83a54.55 54.55 0 0011.55-6.35 31.77 31.77 0 008.87-9c1.99-3.34 3.27-7.83.07-10.87zM251.3 6.81a100.72 100.72 0 00-10.45-.28c.62-1.32 1.53-3.19 2.15-4.49.4-.84-2.09-1.46-2.58-.45-.86 1.81-1.5 3.15-2.34 5a80 80 0 00-11.53 1.17c-.67.1-1.46 2.44.14 2.22 3.79-.53 6.59-1 10.41-1.19a83.66 83.66 0 00-3.59 9.57c-3.21 1.3-8.57 3.16-10.21 3.31-.15 0-.5-.08-.14-1.09s1.58-3.28 3.09-2.39c.43.25 1 .18 1-.38s-.63-1.18-1.08-1.45c-2.13-1.25-4.21.32-5.05 2.36-2.72 1.75-7.29 3.89-9.33 4.16a5.87 5.87 0 01.31-.89c1.43-.68 6.74-2.73 4.48-5.09-1.45-1.51-3.34-.39-4.56.82a.63.63 0 00-.26.05c-2.72 1.29-5.74 2.53-8.51 3.92.58-1.17 1.17-2.31 1.87-3.44.5-.82-.8-2.23-1.68-2a22 22 0 00-5.84 2.85l.08-.15c.45-.8-1.49-2.5-2-1.51l-.24.44c-2.64 1.23-5.54 2.43-8.2 3.77a38.35 38.35 0 011.87-3.44c.5-.82-.8-2.23-1.68-2a21.84 21.84 0 00-5.84 2.85 1.09 1.09 0 01.08-.15c.45-.8-1.5-2.5-2.06-1.51a24.42 24.42 0 00-2.52 5.82c-.18.71 1.29 2.47 2 1.67A21 21 0 01185 20a7.85 7.85 0 00-.83 2.36 2.11 2.11 0 002.46 2.36 14.76 14.76 0 003.94-2.13c1.18-.73 2.36-1.46 3.57-2.14a18 18 0 00-1 2.83c-.18.71 1.28 2.47 2 1.67a21 21 0 016-4.95 7.85 7.85 0 00-.83 2.36 2.1 2.1 0 002.45 2.36 14.61 14.61 0 003.94-2.13c1.12-.7 2.25-1.39 3.39-2a3.48 3.48 0 000 3.63c.93 1.24 2.29 1.15 3.6.68a34.57 34.57 0 007.17-3.81 3 3 0 001.41 2.25c2 1.23 4.28-.12 6.13-.93l4.59-2a42.91 42.91 0 00-1.49 11.55c0 .9 2.14 2.33 2.12 1.07a44.33 44.33 0 012.26-14.07.43.43 0 00.06-.18 92.73 92.73 0 014-10s11.35-.47 11.88-.54-.01-1.4-.52-1.43zM148.78 13.81a25.45 25.45 0 012.07-4.9c.44-.81-1.51-2.51-2.06-1.51a26.47 26.47 0 00-2.07 4.91c-.28.91 1.75 2.52 2.06 1.5zM177.13 17.67a1.6 1.6 0 00-.11-.43c.57-.65-.91-2.31-1.69-1.92a12 12 0 00-3.28 2.6c-2.93 1.27-9.4 3.58-11.24 3.74-.14 0-.5-.08-.13-1.09s1.57-3.28 3.08-2.39c.44.25 1 .18 1-.38s-.63-1.18-1.08-1.45c-1.79-1.05-3.54-.1-4.55 1.44a33.7 33.7 0 00-4.13 1.57c-.19-.22-.39-.43-.57-.65-.49-.59-.87-2.05.42-1.95.61 0 .55-.67.38-1a2 2 0 00-1.45-1.08c-1.95-.14-2.26 1.94-1.63 3.35a22.54 22.54 0 01-7.27 3.9l.18-.52a23.82 23.82 0 011.75-3.59c.46-.8-1.48-2.5-2-1.51-.86 1.48-2.19 3.49-2.15 5.26a2.76 2.76 0 003.08 2.67 11.25 11.25 0 003.77-2 43.94 43.94 0 003.71-2.8c.23.26.47.51.68.78-2.21 1.8-3.74 4-1.58 5.83 2 1.67 3.94-.82 4.22-2.75a4.27 4.27 0 00-.14-1.75 14.85 14.85 0 011.94-1.29 3.16 3.16 0 001.45 3.05c1.95 1.23 4.28-.12 6.12-.93l4.61-2A3.29 3.29 0 00171 24c1.45 1.61 3.3.93 4.5-.59a7.93 7.93 0 001.63-5.74zm-2.71 2.65A6.33 6.33 0 01173.3 22a7.39 7.39 0 01-.88.71c0-.2.07-.42.09-.49a5.77 5.77 0 01.34-.81 7.69 7.69 0 011-1.61 8.89 8.89 0 011.15-1.16 6.31 6.31 0 01-.58 1.68zM88.2 57.58a28.33 28.33 0 01-2 4.27c-.41.69-.86 1.36-1.33 2l-.32.47c0-.3.1-.57.14-.78a13.45 13.45 0 01.82-2.71c.36-.87-1.63-2.52-2.06-1.5a13.42 13.42 0 00-1.06 5.38c0 1.22.76 3.16 2.35 2.87.67-.13 1.1-.75 1.49-1.25a25.28 25.28 0 001.6-2.28 29.13 29.13 0 002.47-5c.3-.86-1.7-2.5-2.1-1.47zM180 60.06c-2.35 1.82-8.11 4.65-10.47 5a5.51 5.51 0 01.31-.89c1.43-.68 6.74-2.73 4.48-5.09-1.47-1.53-3.4-.36-4.61.86a38.71 38.71 0 01-7.63 3.29c.26-.87.68-1.7.87-2.6a3.08 3.08 0 00-.7-3.07c-1.12-1.06-2.16-.55-3.33.14a36.73 36.73 0 00-6.54 4.81c.31-.86.62-1.72 1-2.57q1.13-2.91 2.47-5.73c.65-1.38 1.35-2.73 2.08-4.07h.94a16.43 16.43 0 016.7 1.47c.44.23 1 .2 1-.38s-.57-1.23-1.08-1.46a17.7 17.7 0 00-6.44-1.77q1.38-2.4 2.91-4.71c.58-.87-1.33-2.62-1.84-1.85-1.39 2.08-2.68 4.2-3.89 6.38h-3.36c.62-1.31 1.24-2.62 1.86-3.91.41-.85-1.57-2.52-2-1.51-.87 1.81-1.74 3.63-2.58 5.47a41.43 41.43 0 00-9.18.93c-1 .21.55 2.23 1.5 2.06a49.24 49.24 0 016.7-.79c-3.22 7.35-5.77 15-5.64 23.12 0 .91 2.14 2.33 2.12 1.07-.14-8.55 2.79-16.59 6.28-24.29h3.17c-.76 1.46-1.49 2.93-2.16 4.43q-1.5 3.35-2.7 6.8c-.66 1.88-.92 3.57.82 4.94.26.2.88.5 1.17.17a34.13 34.13 0 018.57-6.83c-.15.54-.37 1.07-.56 1.6a5.69 5.69 0 00-.5 2.36 2.43 2.43 0 003.38 2 22.34 22.34 0 004.38-2.12 3.14 3.14 0 00.24 3c.93 1.24 2.28 1.15 3.6.68 3.57-1.27 6.88-3.63 10-5.69.79-.49-.51-1.89-1.34-1.25zM303.85 59.92c-2.36 1.82-8.12 4.65-10.48 5a7.22 7.22 0 01.31-.89c1.44-.68 6.74-2.73 4.49-5.09-1.57-1.64-3.67-.18-4.85 1.11-.26.29-.55.64-.83 1a39.07 39.07 0 01-5.45 2.16c.26-.87.68-1.7.87-2.6a3.1 3.1 0 00-.69-3.07c-1.13-1.06-2.17-.55-3.34.14a36.73 36.73 0 00-6.54 4.81c.31-.86.63-1.72 1-2.57q1.13-2.91 2.47-5.73c.71-1.51 1.49-3 2.29-4.46h.31a16.36 16.36 0 016.7 1.47c.44.23 1 .2 1-.37s-.62-1.21-1.08-1.45a16.82 16.82 0 00-5.82-1.69c.87-1.47 1.76-2.93 2.71-4.36.58-.87-1.33-2.62-1.84-1.85q-1.95 2.92-3.66 6c-1.35-.06-2.7-.06-4 0 .62-1.31 1.24-2.62 1.86-3.91.41-.85-1.57-2.52-2-1.51-.87 1.81-1.74 3.63-2.58 5.47A86 86 0 00260.8 49c-1 .19.55 2.24 1.51 2.06a83.33 83.33 0 0111.36-1.4c-3.22 7.35-5.2 11.06-5.06 19.18 0 .91 2.13 2.33 2.11 1.07-.14-8.55 2.22-12.65 5.72-20.35h3.84c-.83 1.59-1.64 3.19-2.37 4.83q-1.5 3.35-2.7 6.8c-.66 1.88-.92 3.57.82 4.94.26.2.88.5 1.17.17a34.13 34.13 0 018.57-6.83c-.15.54-.37 1.07-.56 1.6a5.69 5.69 0 00-.5 2.36 2.43 2.43 0 003.38 2 19.36 19.36 0 003-1.35 2.79 2.79 0 00.48 2.14c.93 1.24 2.28 1.15 3.59.68 3.58-1.27 6.88-3.63 10-5.69.84-.53-.48-1.93-1.31-1.29zM49.76 44a1.18 1.18 0 00-.25 0 .52.52 0 00-.45.23l-.06.08a81.09 81.09 0 01-9 14.79l-.42.53a3.35 3.35 0 00-4.31-.14A8.7 8.7 0 0034 60.67c-2.63 1.22-5.49 2.4-8.12 3.73.57-1.16 1.17-2.31 1.86-3.44.51-.82-.79-2.23-1.67-2a21.72 21.72 0 00-5.85 2.84l.09-.15c.45-.8-1.5-2.5-2.06-1.5-.12.2-.23.42-.34.63-1.71 1.47-5.55 4.24-7.78 4.51h-.1a12.21 12.21 0 01.44-1.81 8.36 8.36 0 00.53-1.75.54.54 0 000-.36 1.89 1.89 0 00-.92-1.23 1.13 1.13 0 00-.89-.26 6.37 6.37 0 00-.66.21 3.32 3.32 0 00-4.73-.6 10.92 10.92 0 00-3.8 6.3c-.17.77.94 2.12 1.78 1.79 2.41-1 4.17-3 6.3-4.43A3.44 3.44 0 008 65.26a3.14 3.14 0 002.53 2.22 5.54 5.54 0 003.31-1.07 25.07 25.07 0 002.26-1.55c-.13.38-.26.76-.36 1.15-.18.71 1.29 2.47 2 1.67a20.8 20.8 0 016-4.94 7.7 7.7 0 00-.83 2.35 2.11 2.11 0 002.46 2.36 14.48 14.48 0 003.94-2.13c1-.61 2-1.22 3-1.8a12.11 12.11 0 00-.76 2.27c-.17.79.94 2.09 1.78 1.79a18.44 18.44 0 007.24-5c-.67 1.7-1.31 3.41-1.9 5.14-.31.9 1.71 2.53 2.06 1.5 2.88-8.51 6.35-15.37 10.4-23.37a.48.48 0 00.05-.17c.01-.61-.76-1.45-1.42-1.68zM3.88 63.21l.05-.07c.42-.55.52-1.06 1.06-1.51a4.68 4.68 0 011.54-.74l.47-.08a27.66 27.66 0 00-3.12 2.4zm30.81 1a10.11 10.11 0 01.69-1.06 9.53 9.53 0 011.43-1.55 3 3 0 011.17-.7l.46-.08h.11a16.91 16.91 0 01-3.86 3.38zM80.63 60.4a1.3 1.3 0 00-.11-.43c.57-.65-.91-2.31-1.69-1.92a12.2 12.2 0 00-3.83 3.3 32.31 32.31 0 01-6.59 3.38 2.63 2.63 0 000-.56A2.77 2.77 0 0066.79 62a2.57 2.57 0 00-2.44.32c-.29.17-.57.35-.85.54a5.43 5.43 0 00.3-2 2.08 2.08 0 00-3-1.69 29.17 29.17 0 00-5.9 3.59c.16-.37.34-.74.53-1.11.44-.82-1.52-2.51-2-1.5A16.94 16.94 0 0051.59 66c-.09.69 1.33 2.11 2 1.46a32.81 32.81 0 014.37-3.69 29.83 29.83 0 012.6-1.62c.26-.14.58-.35.91-.55-.09.29-.18.56-.23.78l-.6 2.67c-.19.83 1.12 2.27 2 1.67l2.22-1.58c.37-.26.73-.56 1.11-.79a1.42 1.42 0 01.27-.12v.06a2.73 2.73 0 000 1.27 2.3 2.3 0 002.24 1.63 6.28 6.28 0 002.7-1 30.94 30.94 0 002.66-1.72 3 3 0 00.83 2.23c1.45 1.62 3.3.93 4.5-.59a7.93 7.93 0 001.46-5.71zm-2.71 2.65a6 6 0 01-1.12 1.65 7.39 7.39 0 01-.88.71c0-.2.07-.42.09-.49a5.77 5.77 0 01.34-.81 8 8 0 011-1.61 8.81 8.81 0 011.08-1.12 6.36 6.36 0 01-.51 1.67zM102.87 60.64c-2.35 1.82-8.11 4.65-10.48 5a7.28 7.28 0 01.32-.89c1.43-.69 6.73-2.74 4.48-5.1-1.57-1.63-3.66-.18-4.85 1.12s-3.16 4.23-1.72 6.14c.93 1.24 2.28 1.15 3.6.68 3.57-1.27 6.88-3.63 10-5.68.78-.51-.51-1.91-1.35-1.27zm-8.3.5a.93.93 0 01.66 0l-1.4.73a1.5 1.5 0 01.74-.73zM139.42 55.37a.82.82 0 00-.11-.31 2.68 2.68 0 00-.79-.71 4.08 4.08 0 00-1.87-.5 47 47 0 00-6.91.52c.39-1.12.84-2.38 1.43-3.93.33-.88-1.72-2.47-2.11-1.43-1 2.58-1.53 4.19-2 5.72-2.59.36-5.2.79-7.22 1.21-.86.17 0 2.12.75 2 2.33-.4 4.1-.72 5.81-1-.35 1.21-.75 2.6-1.33 4.52-1.89 1.38-4.37 2.91-6 3.11H119a10.92 10.92 0 01.43-1.8 8.52 8.52 0 00.51-1.82.57.57 0 000-.37 2 2 0 00-.93-1.23 1.12 1.12 0 00-.88-.26c-.23.06-.45.13-.67.21a3.33 3.33 0 00-4.73-.59 10.92 10.92 0 00-3.8 6.3c-.17.77.94 2.11 1.78 1.78 2.42-1 4.18-3 6.3-4.42a3.48 3.48 0 00-.09 2.1 3.17 3.17 0 002.53 2.23 5.54 5.54 0 003.32-1.08c.43-.25.84-.55 1.26-.83a19.75 19.75 0 00-.57 2.36 5.3 5.3 0 00.11 2.44 3.26 3.26 0 00.62 1.16 1.21 1.21 0 00.32.22c.44.19.91.08.94-.51a24 24 0 011.13-5.63c1.1-3.81 1.67-5.92 2.42-8.29 1.35-.17 2.81-.33 4.6-.48a22.64 22.64 0 015.27 0c.47.08.63-.3.55-.69zm-26.63 7.06v-.06a9.14 9.14 0 011.43-1.55 2.93 2.93 0 011.17-.7l.46-.08a26.45 26.45 0 00-3.06 2.39zM203.62 57.39c-1.44-1.35-2.85-.51-4.12.57a20.36 20.36 0 00-2.95 3.13l.82-2.41c.31-.91-1.71-2.53-2.06-1.51-.28.85-.57 1.69-.86 2.53a.82.82 0 00-.21 0 45.92 45.92 0 00-4.73 1.77c-.2-.21-.39-.42-.58-.64-.49-.59-.87-2 .42-2 .62 0 .55-.67.38-1a1.9 1.9 0 00-1.45-1.08c-2-.15-2.29 2.09-1.58 3.49a12.9 12.9 0 001.65 2.08c-2.21 1.79-3.74 4-1.58 5.83 2 1.67 3.94-.82 4.22-2.75a4.15 4.15 0 00-.14-1.76 16.5 16.5 0 012.84-1.74L189 75.63c-.31.91 1.71 2.53 2.06 1.51a52.86 52.86 0 015.48-11.61c.3.56.92 1.15 1.4 1.15 2.8 0 5.35-3.1 6.26-5.49a3.41 3.41 0 00-.58-3.8zm-1.53 2.54c-.76 1.75-2.73 4.38-4.85 4.62.49-.7 1-1.38 1.52-2a20.11 20.11 0 012.59-2.71c.21-.18.44-.37.67-.53a1.65 1.65 0 01.27-.19 3.91 3.91 0 01-.2.81zM260.11 63.46a5 5 0 00-3.74-.76 60.77 60.77 0 013.14-5.49c.57-.88-1.34-2.62-1.84-1.84a44.77 44.77 0 00-5.83 12.68c-.88 3.66-1.94 8.83 1.87 11.17.23.14.7.25.91 0 2-2.27 2.63-5.24 3-8.19.27-2.16.38-4.41-.76-6.08a3.2 3.2 0 012.74 0c1.46.95 1.61-.76.51-1.49zm-4.42 4.79c-.1 1.12-.23 2.25-.43 3.35a12.29 12.29 0 01-2 5.2c-.4-1.11 0-3.22.05-4a30.08 30.08 0 011.26-5.64c.2-.64.43-1.27.68-1.89.75.62.52 2.2.44 2.98zM252.24 59.82a1.24 1.24 0 00-.11-.43c.57-.65-.91-2.31-1.69-1.92-2.54 1.27-7 5.66-4.32 8.67 1.45 1.61 3.3.93 4.5-.59a7.88 7.88 0 001.62-5.73zm-2.71 2.65a6.55 6.55 0 01-1.11 1.65 9.44 9.44 0 01-.88.71c0-.2.06-.42.08-.49a7.27 7.27 0 01.34-.81 8.5 8.5 0 011-1.62 9.53 9.53 0 011.08-1.12 6.55 6.55 0 01-.51 1.68zM243.76 42.29a1 1 0 00-.24 0 .54.54 0 00-.46.23.56.56 0 00-.05.08c-2.79 5.52-5.73 11.09-9.57 16-.13.18-.27.35-.42.53a3.31 3.31 0 00-4.3-.14 9 9 0 00-1.66 1.66c-2.64 1.8-7.61 4.17-9.76 4.45a5.51 5.51 0 01.31-.89c1.43-.68 6.8-3.09 4.37-5.27-2.06-1.85-4.32.87-5.2 1.36-2.59 1.46-7.7 4.5-10.06 4.81a5.51 5.51 0 01.31-.89c1.43-.68 6.74-2.73 4.48-5.09-1.57-1.64-3.66-.19-4.84 1.11s-3.18 4.26-1.74 6.19c.93 1.24 2.28 1.15 3.6.68a33.37 33.37 0 006.64-3.47 3.06 3.06 0 00.33 2.79c.93 1.24 2.29 1.15 3.6.68a31.92 31.92 0 006.2-3.19 12.1 12.1 0 00-.4 1.39c-.18.78.93 2.09 1.78 1.78a18.39 18.39 0 007.23-5c-.67 1.69-1.31 3.4-1.89 5.13-.31.91 1.7 2.53 2.05 1.51 2.89-8.51 6.93-16.54 11-24.54a.84.84 0 00.05-.17c.08-.7-.7-1.54-1.36-1.73zm-24.34 18.13c.28-.21.92-.22.47.09s-1.7 1.05-1.7 1.05.91-.9 1.23-1.14zm10.82 1.65l-.5.42a6.64 6.64 0 01-1.44 1 .1.1 0 01-.12 0 4.6 4.6 0 013.22-3.28 1.23 1.23 0 01.47 0 .23.23 0 01.12.06 9.49 9.49 0 01-1.75 1.8zM324.76 56.35a21.23 21.23 0 01-1.76 4.43 16.06 16.06 0 01-2.24 3.27c.07-.6.24-1.3.27-1.54.13-1.06.33-2.11.56-3.15.16-.73-1.21-2.44-1.95-1.68l-4.09 4.18c-.53.54-1.07 1.2-1.68 1.77.06-.11.11-.21.15-.27a13 13 0 011.71-2.5c.67-.78-1.21-2.6-1.85-1.85a13 13 0 00-2.7 4.7c-.34 1.25.2 3 1.68 3.19s3-1.59 3.88-2.52l2-2a12.1 12.1 0 000 1.47c.05 1.35 1.2 2.84 2.67 2.66s2.59-2.34 3.24-3.51a21.6 21.6 0 002.17-5.12c.26-.95-1.77-2.54-2.06-1.53zm44.88-12.45a.84.84 0 01-.05.17c-4 8-8.09 16-11 24.54-.35 1-2.36-.6-2.05-1.51.58-1.73 1.22-3.44 1.89-5.13a18.39 18.39 0 01-7.23 5c-.85.31-2-1-1.78-1.78a12.41 12.41 0 01.75-2.28c-1 .58-2 1.19-3 1.81a14.61 14.61 0 01-3.94 2.13 2.11 2.11 0 01-2.46-2.36 8.43 8.43 0 01.83-2.36 21.14 21.14 0 00-6 4.95c-.67.8-2.13-1-1.95-1.68a15 15 0 01.49-1.57c-.25.18-.48.36-.73.53a11.3 11.3 0 01-3.78 2 2.75 2.75 0 01-3.07-2.67c-.05-1.77 1.28-3.78 2.14-5.26.58-1 2.52.71 2.06 1.51a22.9 22.9 0 00-1.75 3.59c-.07.17-.13.34-.19.52a22.57 22.57 0 006.9-3.61l.44-.82c.57-1 2.51.71 2.06 1.51l-.08.15a21.84 21.84 0 015.84-2.85c.88-.27 2.18 1.14 1.68 1.95-.7 1.14-1.29 2.28-1.87 3.44 2.64-1.32 5.5-2.51 8.12-3.73a8.21 8.21 0 011.26-1.17 3.31 3.31 0 014.3.14c.15-.18.29-.35.42-.53 3.84-4.87 6.78-10.44 9.57-16a.56.56 0 01.05-.08.52.52 0 01.45-.23 1 1 0 01.24 0c.8.26 1.53 1.1 1.44 1.68zm-4.09 20.68l-.27-.1a.8.8 0 00-.46 0 2.6 2.6 0 00-.92.79.67.67 0 00-.09.63 2.08 2.08 0 001.3 1.31c.19 0 .5.09.64-.1a2.29 2.29 0 01.61-.59.32.32 0 00.18-.18.39.39 0 00.09-.3 1.48 1.48 0 00-.32-.79 2.3 2.3 0 00-.76-.67zM356 60.31a2.86 2.86 0 00-1.17.7 9.2 9.2 0 00-1.44 1.55 9.08 9.08 0 00-.68 1.06 17.37 17.37 0 003.86-3.36h-.12z"/></g></g></svg>