<svg width="160px" height="18px" viewBox="0 0 160 18" version="1.1" 
    xmlns="http://www.w3.org/2000/svg" 
    xmlns:xlink="http://www.w3.org/1999/xlink">
    <g id="Symbols" stroke="none" stroke-width="1" fill="none" fill-rule="evenodd">
        <g id="TOP-NAV-MENU" transform="translate(-640.000000, -15.000000)" fill="#FFFFFF">
            <g transform="translate(0.000000, -6.000000)" id="Combined-Shape">
                <path d="M640,21.2994066 L643.038547,21.2994066 L643.038547,35.9174921 L652.130809,35.9174921 L652.130809,38.7004663 L640,38.7004663 L640,21.2994066 Z M739.444647,21.2994066 L753.478576,21.2994066 L753.478576,24.133882 L747.993522,24.133882 L747.993522,38.7004663 L744.929701,38.7004663 L744.929701,24.133882 L739.444647,24.133882 L739.444647,21.2994066 Z M762.150724,21.2994066 L776.184022,21.2994066 L776.184022,24.133882 L770.6996,24.133882 L770.6996,38.7004663 L767.635779,38.7004663 L767.635779,24.133882 L762.150724,24.133882 L762.150724,21.2994066 Z M667.944586,21.1735147 L670.760723,21.1735147 L678.371307,38.7004663 L665.83422,38.7004663 L668.601073,35.9174921 L673.983769,35.9174921 L669.303054,24.8294666 L663.44837,38.7004663 L660.335265,38.7004663 L667.944586,21.1735147 Z M723.211072,21.1735147 L726.027841,21.1735147 L733.637794,38.7004663 L721.100707,38.7004663 L723.86756,35.9174921 L729.250256,35.9174921 L724.570173,24.8294666 L718.715489,38.7004663 L715.601752,38.7004663 L723.211072,21.1735147 Z M789.573279,21.1735147 L792.390048,21.1735147 L800,38.7004663 L787.462914,38.7004663 L790.229767,35.9174921 L795.612462,35.9174921 L790.932379,24.8294666 L785.077063,38.7004663 L781.963959,38.7004663 L789.573279,21.1735147 Z M698.407456,31.6397739 L701.051099,28.9795125 L707.294369,28.9795125 L707.294369,36.289509 C705.589648,37.7576122 703.143141,39 700.07932,39 C694.668824,39 691.1109,35.1221477 691.1109,30.048958 L691.1109,30 C691.1109,25.1277287 694.817308,21 700.030036,21 C703.043309,21 704.896514,21.8456376 706.67516,23.3607912 L704.543312,25.5066761 C703.277724,24.4632992 701.991918,23.8096786 699.906195,23.8096786 C696.719796,23.8096786 694.298562,26.6193571 694.298562,29.9516779 L694.298562,30 C694.298562,33.5796538 696.645238,36.2144825 700.17852,36.2144825 C701.809314,36.2144825 703.291625,35.6924762 704.353758,34.8989756 L704.353758,31.6397739 L698.407456,31.6397739 Z"></path>
            </g>
        </g>
    </g>
</svg>