<?xml version="1.0" encoding="UTF-8"?>
<svg width="182px" height="23px" viewBox="0 0 182 23" version="1.1" xmlns="http://www.w3.org/2000/svg" xmlns:xlink="http://www.w3.org/1999/xlink">
    <!-- Generator: Sketch 55 (78076) - https://sketchapp.com -->
    <title>Group</title>
    <desc>Created with Sketch.</desc>
    <g id="Page-1" stroke="none" stroke-width="1" fill="none" fill-rule="evenodd">
        <g id="Home" transform="translate(-220.000000, -43.000000)">
            <g id="Group" transform="translate(220.000000, 43.000000)">
                <path d="M4.072,11.073 L4.072,4.164 L8.484,4.164 C11.044,4.164 12.185,5.891 12.185,7.619 C12.185,9.346 11.075,11.073 8.484,11.073 L4.072,11.073 Z M16.257,7.526 C16.257,3.793 13.574,0.4 8.484,0.37 C5.06,0.37 3.424,0.339 0,0.339 L0,21.963 L4.072,21.963 L4.072,11.151 L12.494,21.963 L17.337,21.963 L11.047,14.281 C13.051,13.522 16.257,11.66 16.257,7.526 L16.257,7.526 Z" id="Fill-61" fill="#FFFFFF"></path>
                <path d="M43.027,11.073 L43.027,4.164 L47.439,4.164 C50,4.164 51.141,5.891 51.141,7.619 C51.141,9.346 50.03,11.073 47.439,11.073 L43.027,11.073 Z M55.213,7.526 C55.213,3.793 52.529,0.4 47.439,0.37 C44.015,0.37 42.38,0.339 38.956,0.339 L38.956,21.963 L43.027,21.963 L43.027,11.151 L51.45,21.963 L56.293,21.963 L50.003,14.281 C52.007,13.522 55.213,11.66 55.213,7.526 L55.213,7.526 Z" id="Fill-62" fill="#FFFFFF"></path>
                <path d="M60.241,12.585 C60.796,10.611 62.462,9.624 64.498,9.624 C66.657,9.624 68.2,10.611 68.446,12.585 L60.241,12.585 Z M64.374,6.292 C59.439,6.292 56.293,9.624 56.293,14.251 C56.293,19.125 59.408,22.364 64.652,22.364 C66.965,22.364 69.587,21.562 71.191,19.896 L68.786,17.521 C67.922,18.415 66.102,18.94 64.713,18.94 C62.061,18.94 60.426,17.582 60.179,15.701 L72.056,15.701 C72.642,9.439 69.464,6.292 64.374,6.292 L64.374,6.292 Z" id="Fill-63" fill="#FFFFFF"></path>
                <path d="M81.988,18.817 C79.581,18.817 77.669,16.996 77.669,14.344 C77.669,11.598 79.581,9.901 81.988,9.901 C84.363,9.901 86.398,11.69 86.398,14.344 C86.398,17.089 84.363,18.817 81.988,18.817 Z M86.645,8.821 C85.751,7.248 83.252,6.385 81.648,6.385 C77.206,6.385 73.906,9.099 73.906,14.344 C73.906,19.341 77.267,22.302 81.741,22.302 C83.592,22.302 85.473,21.685 86.645,19.865 L86.892,21.963 L90.408,21.963 L90.408,0.4 L86.645,0.4 L86.645,8.821 L86.645,8.821 Z" id="Fill-64" fill="#FFFFFF"></path>
                <path d="M96.947,12.585 C97.502,10.611 99.168,9.624 101.203,9.624 C103.363,9.624 104.905,10.611 105.152,12.585 L96.947,12.585 Z M101.08,6.292 C96.144,6.292 92.998,9.624 92.998,14.251 C92.998,19.125 96.114,22.364 101.358,22.364 C103.671,22.364 106.293,21.562 107.897,19.896 L105.491,17.521 C104.628,18.415 102.807,18.94 101.419,18.94 C98.766,18.94 97.132,17.582 96.885,15.701 L108.761,15.701 C109.347,9.439 106.17,6.292 101.08,6.292 L101.08,6.292 Z" id="Fill-65" fill="#FFFFFF"></path>
                <path d="M112.554,5.953 L112.554,6.971 L111.143,6.971 L109.716,10.271 L112.554,10.271 L112.554,21.963 L116.317,21.963 L116.317,10.271 L120.791,10.271 L120.791,6.971 L116.317,6.971 L116.317,5.953 C116.317,4.102 117.305,3.239 118.601,3.239 C119.372,3.239 120.112,3.516 120.914,4.041 L122.302,1.233 C121.068,0.431 119.68,0 118.354,0 C115.299,0 112.554,1.881 112.554,5.953" id="Fill-66" fill="#FFFFFF"></path>
                <path d="M122.766,2.467 C122.766,5.398 127.207,5.398 127.207,2.467 C127.207,-0.463 122.766,-0.463 122.766,2.467" id="Fill-67" fill="#FFFFFF"></path>
                <polygon id="Fill-68" fill="#FFFFFF" points="123.104 21.963 126.868 21.963 126.868 6.693 123.104 6.693"></polygon>
                <path d="M138.435,6.508 C136.522,6.508 134.98,7.279 133.438,8.791 L133.191,6.724 L129.829,6.724 L129.829,21.963 L133.561,21.963 L133.561,14.189 C133.561,11.875 135.135,9.932 137.448,9.932 C139.854,9.932 141.119,11.69 141.119,14.004 L141.119,21.963 L144.882,21.963 L144.882,13.973 C144.882,9.192 142.013,6.508 138.435,6.508" id="Fill-69" fill="#FFFFFF"></path>
                <path d="M151.051,12.585 C151.606,10.611 153.272,9.624 155.307,9.624 C157.467,9.624 159.009,10.611 159.256,12.585 L151.051,12.585 Z M155.184,6.292 C150.248,6.292 147.102,9.624 147.102,14.251 C147.102,19.125 150.218,22.364 155.462,22.364 C157.775,22.364 160.397,21.562 162.001,19.896 L159.595,17.521 C158.732,18.415 156.911,18.94 155.523,18.94 C152.87,18.94 151.236,17.582 150.989,15.701 L162.865,15.701 C163.451,9.439 160.274,6.292 155.184,6.292 L155.184,6.292 Z" id="Fill-70" fill="#FFFFFF"></path>
                <path d="M172.797,18.817 C170.391,18.817 168.479,16.996 168.479,14.344 C168.479,11.598 170.391,9.901 172.797,9.901 C175.172,9.901 177.208,11.69 177.208,14.344 C177.208,17.089 175.172,18.817 172.797,18.817 Z M177.455,0.4 L177.455,8.821 C176.561,7.248 174.062,6.385 172.458,6.385 C168.016,6.385 164.715,9.099 164.715,14.344 C164.715,19.341 168.077,22.302 172.55,22.302 C174.401,22.302 176.283,21.685 177.455,19.865 L177.702,21.963 L181.218,21.963 L181.218,0.4 L177.455,0.4 L177.455,0.4 Z" id="Fill-71" fill="#FFFFFF"></path>
                <polygon id="Fill-72" fill="#FFFFFF" points="25.8185 6.755 27.9951172 9.60791016 29.64325 11.8753662 33.468 6.755"></polygon>
                <polyline id="Fill-73" fill="#FFFFFF" points="18.169 6.755 23.567 14.359 18.169 21.963 22.672 21.963 25.819 17.53 28.965 21.963 33.468 21.963 22.672 6.755 18.169 6.755"></polyline>
            </g>
        </g>
    </g>
</svg>