<svg xmlns="http://www.w3.org/2000/svg" viewBox="0 0 377.78 72.8"><defs><style>.cls-1{fill:#fff}</style></defs><g id="Layer_2" data-name="Layer 2"><g id="Layer_1-2" data-name="Layer 1"><path class="cls-1" d="M319 26.28c.53 1.49-.35 2.72-1.34 3.75-.69.72-2.54-1.12-1.85-1.85a7.44 7.44 0 00.88-1c-.53-.46-.9-1.19-.52-1.58a2.23 2.23 0 011.06-.61c.82-.22 1.57.63 1.77 1.29zM10.56 5.28a23.75 23.75 0 00-7.37 4.15C1.48 10.92-1 13.33.45 15.69c.7 1.12 2.41 1 1.49-.5a6.62 6.62 0 01.49-.94 8.57 8.57 0 01.8-1.1 14.11 14.11 0 011.95-2A20.57 20.57 0 0110 8.2c3.46-1.58 7.92-3.14 11.61-1.42s3.24 6.19 1.63 9.3A16.87 16.87 0 0115 23.43a15.66 15.66 0 01-2.73.92 4.88 4.88 0 01-1.32.11c-.59-.05-.76-.12-.65-.74.33-2 2.23-3.86 3.93-4.81 1-.55-.69-2.5-1.5-2.05a10.47 10.47 0 00-1.12.71c.83-2.23 1.73-4.42 2.73-6.58.4-.86-1.58-2.53-2.05-1.51a89.8 89.8 0 00-7.16 23.35c-.15 1 1.9 2.49 2.06 1.51a90.15 90.15 0 012-9.06 4.14 4.14 0 002.33 1.23c2.15.35 4.5-.68 6.35-1.67a18.76 18.76 0 005.83-4.76c2.9-3.61 4.26-8.93 1-12.77-3.65-4.21-9.41-3.79-14.14-2.03zM67.71 21.56a40.17 40.17 0 00-6.37 3.81q1-2.53 1.73-5.14c.22-.75-1.23-2.4-2-1.67a41.82 41.82 0 01-4.89 4.22c-.9.65-1.83 1.29-2.79 1.85a7.63 7.63 0 01-2 .94 8.86 8.86 0 011.76-3.52c.64-.8-1.24-2.6-1.85-1.85a11 11 0 00-1.11 1.73c-1.72 1.48-5.52 4.22-7.74 4.49h-.1a12.4 12.4 0 01.44-1.8 8.52 8.52 0 00.51-1.82.49.49 0 000-.36 1.93 1.93 0 00-.92-1.24 1.12 1.12 0 00-.89-.25 5 5 0 00-.66.2 3.33 3.33 0 00-4.73-.59A9.3 9.3 0 0033.93 23a18.51 18.51 0 01-6.38 2.51c-.14-1.47.95-3.66 1.3-4.7.7-2.11 1.44-4.22 2.2-6.31 1.54-4.27 2.69-7.07 4.44-11.25.37-.88-1.62-2.53-2.05-1.51-1.61 3.83-2.63 6.26-4.06 10.17-.68 1.87-1.35 3.76-2 5.65a46.67 46.67 0 00-1.75 5.49 4.34 4.34 0 00.77 3.86c.9 1.07 2.09.85 3.3.48a14.36 14.36 0 002.81-1.21c-.06.23-.13.46-.18.69-.17.77.94 2.11 1.78 1.78 2.41-.95 4.18-3 6.3-4.42a3.41 3.41 0 00-.09 2.1 3.17 3.17 0 002.53 2.23 5.54 5.54 0 003.31-1.07 26.47 26.47 0 003-2.09c0 .15-.06.3-.08.46 0 .56.62 1.24 1.08 1.44 2.42 1.09 4.58-.39 6.58-1.72.92-.61 1.81-1.27 2.67-2-.74 2-1.56 3.91-2.47 5.8-.38.38-.76.75-1.13 1.13a48.67 48.67 0 00-4.31 4.88c-1.49 2-2.8 4.26-2.1 6.78.14.48 1.39 1.94 2 1.22a71.9 71.9 0 007.51-12.24 54.87 54.87 0 0110-8.06c.9-.54-.39-1.97-1.2-1.53zm-31.52 2.73l.05-.07a9.14 9.14 0 011.43-1.55 2.93 2.93 0 011.17-.7l.46-.08a26.54 26.54 0 00-3.11 2.4zM80.47 17.48A13.53 13.53 0 0182.1 14c.44-.81-1.51-2.51-2.06-1.51A13.6 13.6 0 0078.41 16c-.28.89 1.75 2.5 2.06 1.48zM100.2 21.56c-2.73 1.29-5.75 2.53-8.51 3.91.57-1.16 1.17-2.3 1.86-3.43.51-.82-.79-2.23-1.67-2A22 22 0 0086 22.93l.09-.15c.45-.8-1.5-2.5-2.06-1.51l-.44.82a22.61 22.61 0 01-6.91 3.61c.06-.18.12-.35.19-.52a23.82 23.82 0 011.75-3.59c.46-.8-1.48-2.5-2.06-1.51-.85 1.48-2.18 3.49-2.14 5.26a2.76 2.76 0 003.1 2.66 11.21 11.21 0 003.78-2l.74-.53c-.19.52-.36 1-.5 1.57-.18.72 1.29 2.48 2 1.68a21 21 0 016-5 7.85 7.85 0 00-.83 2.36 2.11 2.11 0 002.46 2.36A14.76 14.76 0 0095 26.4a59.83 59.83 0 016-3.4c1-.45.05-1.84-.8-1.44zM146.68 11.63c2.27 0 4.55 0 6.82.16a16.36 16.36 0 016.7 1.47c.45.23 1 .2 1-.38s-.62-1.21-1.08-1.45c-3.72-1.95-8.39-2-12.61-1.94.61-1.31 1.23-2.62 1.86-3.91.4-.85-1.57-2.52-2.06-1.51-.87 1.81-1.74 3.63-2.58 5.47a86 86 0 00-13.85 1.54c-1 .19.55 2.24 1.51 2.06a83.53 83.53 0 0111.36-1.4 83.08 83.08 0 00-3.69 9.9c-1.51 1.37-5.7 4.49-8.08 4.78h-.09a10.25 10.25 0 01.44-1.8 9.11 9.11 0 00.5-1.82.54.54 0 000-.36 2 2 0 00-.92-1.24 1.13 1.13 0 00-.89-.25 5.16 5.16 0 00-.67.2 3.33 3.33 0 00-4.73-.59 8.86 8.86 0 00-1.4 1.34c-2.52 1.16-5.24 2.3-7.76 3.56.57-1.16 1.17-2.3 1.86-3.43.51-.82-.79-2.23-1.67-2a21.84 21.84 0 00-5.84 2.85 1.09 1.09 0 01.08-.15c.45-.8-1.5-2.5-2.06-1.51a24.52 24.52 0 00-2.52 5.81c-.18.72 1.29 2.48 2 1.68a21.18 21.18 0 016-5 7.85 7.85 0 00-.83 2.36 2.11 2.11 0 002.46 2.36 14.76 14.76 0 003.94-2.13c.89-.56 1.79-1.11 2.7-1.64a11.82 11.82 0 00-.69 2.11c-.17.77.94 2.11 1.78 1.78 2.42-.95 4.18-3 6.3-4.42a3.56 3.56 0 00-.09 2.1 3.19 3.19 0 002.53 2.23 5.57 5.57 0 003.32-1.07 29.25 29.25 0 003.52-2.56 41.64 41.64 0 00-1.09 9.93c0 .91 2.13 2.33 2.11 1.07-.13-8.55 2.79-16.59 6.29-24.29zm-20.92 12.66a.16.16 0 010-.07c.42-.56.5-1.15 1-1.6a4.49 4.49 0 011.64-.62l.46-.08a27.28 27.28 0 00-3.1 2.37z"/><path class="cls-1" d="M167.37 21.48c-1.37-2.31-3.32-1.9-5.13-.51-.29-.87-1.73-1.86-2-1s-.55 1.44-.82 2.16c-1.39 1.34-3.67 3.21-5.16 3.54 0-.11.05-.23.07-.34.28-1.18.62-2.35 1-3.51.24-.77-1.21-2.35-2-1.67-1.82 1.64-3.56 3.38-5.5 4.88a12.31 12.31 0 01-1.83 1.25c.11-.35.24-.69.38-1a9.08 9.08 0 011.3-2.28c.66-.78-1.21-2.6-1.85-1.85-1.27 1.5-3.09 4.76-1.67 6.62 1.06 1.41 2.5 1.08 3.82.28a25.77 25.77 0 004-3.13.77.77 0 000 .15 2.75 2.75 0 001.2 3c1 .6 2 .11 2.85-.48a17.16 17.16 0 001.8-1.41l-.33.86c-.33.86 1.58 2.53 2.05 1.5a15.29 15.29 0 012.71-4 13.43 13.43 0 011.63-1.54 5.55 5.55 0 012-1.1 1.41 1.41 0 001.11.62c.55-.06.63-.6.37-1.04zM180 21.72c-2.36 1.82-8.12 4.65-10.48 5a6.68 6.68 0 01.31-.89c1.44-.68 6.74-2.73 4.49-5.09-1.57-1.64-3.67-.19-4.85 1.11s-3.17 4.26-1.73 6.19c.93 1.24 2.28 1.15 3.59.68 3.58-1.27 6.88-3.63 10-5.69.81-.55-.5-1.95-1.33-1.31zM184.58 25.86c.53 1.49-.35 2.72-1.34 3.75-.69.72-2.54-1.12-1.84-1.85a7.54 7.54 0 00.88-1c-.54-.46-.91-1.19-.53-1.58a2.21 2.21 0 011.06-.6c.79-.23 1.54.62 1.77 1.28zM234.52 11.57c.63-.59.79-1.07.51-1.72a56.44 56.44 0 00-7.28-.36c.61-1.31 1.24-2.62 1.86-3.91.4-.85-1.57-2.52-2.06-1.51-.86 1.81-1.73 3.63-2.57 5.47a86.09 86.09 0 00-13.86 1.54c-1 .19.56 2.24 1.51 2.06a83.53 83.53 0 0111.37-1.4 83 83 0 00-3.68 9.9c-1.51 1.37-5.71 4.49-8.09 4.78h-.09a12.4 12.4 0 01.44-1.8 9.87 9.87 0 00.51-1.82.55.55 0 000-.36 1.93 1.93 0 00-.92-1.24 1.13 1.13 0 00-.89-.25 5.16 5.16 0 00-.67.2 3.32 3.32 0 00-4.72-.59 8.93 8.93 0 00-1.89 1.96c-2.73 1.75-7.29 3.89-9.33 4.16a5.51 5.51 0 01.31-.89c1.43-.68 6.74-2.73 4.48-5.09-1.57-1.64-3.66-.19-4.84 1.11s-3.18 4.26-1.74 6.19c.93 1.24 2.28 1.15 3.6.68a30.68 30.68 0 005.93-3c-.13.4-.25.81-.35 1.22-.17.77.94 2.11 1.79 1.78 2.41-.95 4.17-3 6.3-4.42a3.41 3.41 0 00-.09 2.1 3.17 3.17 0 002.52 2.23 5.55 5.55 0 003.32-1.07 27.75 27.75 0 003.52-2.56 31 31 0 00-1 8.5c0 .91 2.14 2.33 2.12 1.07-.14-8.55 2.75-15.16 6.24-22.86 2.35 0 3.82-.16 6.13 0a11.8 11.8 0 001.61-.1zM206 24.29a.43.43 0 010-.07 9.2 9.2 0 011.44-1.55 2.86 2.86 0 011.17-.7l.45-.08a26.54 26.54 0 00-3.06 2.4zM248.65 21.05c.57-.65-.91-2.31-1.69-1.92a12.11 12.11 0 00-4 3.53 18.74 18.74 0 01-6.9 2.85c-.14-1.47.94-3.66 1.29-4.7.71-2.11 1.44-4.22 2.2-6.31 1.54-4.27 3.2-8.49 4.95-12.67.36-.87-1.63-2.53-2.06-1.51q-2.4 5.75-4.55 11.59c-.69 1.87-1.36 3.76-2 5.65a44.93 44.93 0 00-1.76 5.49 4.34 4.34 0 00.77 3.86c.9 1.07 2.09.85 3.3.48a15.51 15.51 0 003.63-1.7 3 3 0 00.83 2.11c1.45 1.61 3.3.93 4.5-.59a7.93 7.93 0 001.62-5.73 1.24 1.24 0 00-.13-.43zm-2.6 3.08a6.33 6.33 0 01-1.12 1.65 8.19 8.19 0 01-.87.71c0-.2.06-.42.08-.49a5.77 5.77 0 01.34-.81 7.69 7.69 0 011-1.61 8.89 8.89 0 011.08-1.13 6.55 6.55 0 01-.51 1.68zM314.52 21.56a39.82 39.82 0 00-6.38 3.81q1-2.53 1.73-5.14c.22-.75-1.23-2.4-1.95-1.67a41.82 41.82 0 01-4.92 4.22c-.9.65-1.82 1.29-2.78 1.85a7.7 7.7 0 01-2.05.94 9.13 9.13 0 011.83-3.52c.65-.8-1.24-2.6-1.85-1.85a10.42 10.42 0 00-1.34 2.22 18.62 18.62 0 01-7.23 3.09c-.14-1.47.94-3.66 1.29-4.7.71-2.11 1.44-4.22 2.2-6.31 1.54-4.27 1.92-4.93 3.67-9.11.37-.88-1.62-2.53-2.05-1.51-1.61 3.83-1.85 4.13-3.28 8-.69 1.87-1.36 3.76-2 5.65-.52 1.51-1.13 3-1.54 4.6a18.28 18.28 0 01-7.56 3.35c-.14-1.47 1-3.66 1.3-4.7.7-2.11 1.43-4.22 2.19-6.31q2.33-6.4 4.95-12.67c.37-.87-1.62-2.53-2-1.51q-2.42 5.75-4.56 11.59c-.69 1.87-1.35 3.76-2 5.65-.47 1.38-1 2.79-1.43 4.21-1.62 1.42-5.63 4.37-7.94 4.65h-.09a10.25 10.25 0 01.44-1.8 9.11 9.11 0 00.5-1.82.54.54 0 000-.36 2 2 0 00-.92-1.24 1.13 1.13 0 00-.89-.25 5.16 5.16 0 00-.67.2 3.33 3.33 0 00-4.73-.59 8.82 8.82 0 00-1.46 1.41c-3.11 1.3-9 3.37-10.74 3.53-.15 0-.5-.08-.14-1.09s1.58-3.28 3.09-2.39c.44.25 1 .18 1-.38s-.63-1.18-1.08-1.45c-3.85-2.27-7.56 4.7-4 7 2 1.23 4.29-.12 6.13-.93l4.17-1.83a12.51 12.51 0 00-.86 2.52c-.17.77.94 2.11 1.78 1.78 2.42-.95 4.18-3 6.3-4.42a3.48 3.48 0 00-.09 2.1 3.17 3.17 0 002.53 2.23 5.57 5.57 0 003.32-1.07 30.22 30.22 0 003.79-2.78 3.85 3.85 0 00.89 2.2c.9 1.07 2.08.85 3.3.48a16.29 16.29 0 005.07-2.71 3.9 3.9 0 00.89 2.23c.9 1.07 2.09.85 3.3.48a15.77 15.77 0 004.35-2.17 5.58 5.58 0 00-.09.59c-.05.56.62 1.24 1.07 1.44 2.43 1.09 4.58-.39 6.58-1.72.92-.61 1.81-1.27 2.67-2-.74 2-1.56 3.91-2.47 5.8l-1.13 1.13a50 50 0 00-4.31 4.88c-1.48 2-2.79 4.26-2.09 6.78.13.48 1.38 1.94 1.94 1.22a72.59 72.59 0 007.52-12.24 54.46 54.46 0 0110-8.06c.93-.54-.37-1.97-1.17-1.53zm-50.06 2.73l.05-.07a8.72 8.72 0 011.24-1.64 3.5 3.5 0 011.36-.61l.46-.08a28.28 28.28 0 00-3.11 2.4zM376.43 4a1.18 1.18 0 00-.25 0 .52.52 0 00-.45.23l-.06.08a94.32 94.32 0 01-9.56 16l-.42.53a3.32 3.32 0 00-4.31-.14 8.21 8.21 0 00-1.26 1.17c-2.62 1.22-5.48 2.41-8.12 3.73.58-1.16 1.17-2.3 1.87-3.43.5-.82-.8-2.23-1.68-2a22 22 0 00-5.84 2.85l.08-.15c.45-.8-1.49-2.5-2.05-1.51l-.35.64c-1.71 1.46-5.54 4.24-7.78 4.51h-.09a12.4 12.4 0 01.44-1.8 9.11 9.11 0 00.5-1.82.54.54 0 000-.36 2 2 0 00-.92-1.24 1.13 1.13 0 00-.89-.25 5.16 5.16 0 00-.67.2 3.32 3.32 0 00-4.72-.59 10.89 10.89 0 00-3.81 6.3c-.17.77.94 2.11 1.78 1.78 2.42-.95 4.18-3 6.3-4.42a3.48 3.48 0 00-.08 2.1 3.17 3.17 0 002.52 2.23 5.55 5.55 0 003.39-1.15 26.58 26.58 0 002.26-1.55c-.13.38-.26.76-.36 1.14-.18.72 1.28 2.48 1.95 1.68a21.18 21.18 0 016-5 7.85 7.85 0 00-.83 2.36 2.11 2.11 0 002.46 2.36 14.7 14.7 0 003.93-2.13c1-.62 2-1.23 3-1.81a13.21 13.21 0 00-.75 2.28c-.18.78.93 2.09 1.78 1.78a18.39 18.39 0 007.23-5q-1 2.54-1.89 5.13c-.31.91 1.71 2.53 2.05 1.51 2.89-8.51 6.93-16.54 11-24.54a.48.48 0 000-.17c.03-.53-.75-1.39-1.4-1.53zM330 24.29a.43.43 0 010-.07 8.81 8.81 0 011.21-1.61 3.75 3.75 0 011.39-.64l.46-.08a26.54 26.54 0 00-3.06 2.4zm30.81 1a10 10 0 012.12-2.61 2.86 2.86 0 011.17-.7l.46-.08h.11a17.15 17.15 0 01-3.88 3.38zM34.09 50.73c-1.38-2.31-3.32-1.9-5.14-.51-.29-.87-1.73-1.86-2-1-.85 2.36-1.8 4.67-2.69 7-.32.86 1.58 2.53 2.06 1.5a15 15 0 012.71-4 14.21 14.21 0 011.61-1.49 5.72 5.72 0 012-1.1 1.44 1.44 0 001.12.62c.51-.04.59-.58.33-1.02zM51.81 47.9a28 28 0 01-2.05 4.28 22.38 22.38 0 01-1.33 2c-.08.11-.19.28-.31.47 0-.3.1-.57.14-.79a12.93 12.93 0 01.82-2.7c.36-.87-1.63-2.53-2.06-1.5a14 14 0 00-.51 1.46c-2.47 1.82-8 4.51-10.28 4.81a7.28 7.28 0 01.32-.89c1.45-.69 6.74-2.74 4.45-5.1-1.57-1.64-3.66-.18-4.85 1.11-1.3 1.44-3.17 4.26-1.73 6.19.93 1.24 2.28 1.15 3.6.68a38.7 38.7 0 008-4.32A11.56 11.56 0 0046 55c0 1.22.76 3.16 2.34 2.87.67-.13 1.1-.75 1.5-1.25a24.08 24.08 0 001.6-2.29 29.4 29.4 0 002.47-5c.3-.81-1.7-2.45-2.1-1.43zM75.82 51.08a17.36 17.36 0 01-7.92 3.68c-.14-1.47.95-3.66 1.29-4.7 1.78-5.3 4.27-10.37 6.46-15.59C76 33.6 74 31.94 73.59 33c-2.53 6-5.59 11.82-7.32 18.13-2.47 1.82-8 4.5-10.27 4.8a6.46 6.46 0 01.32-.9c1.44-.68 6.74-2.73 4.49-5.09-1.57-1.64-3.67-.18-4.85 1.11-1.31 1.44-3.17 4.26-1.73 6.19.93 1.24 2.28 1.15 3.59.68a38.33 38.33 0 008-4.36 3.93 3.93 0 00.9 2.6c.91 1.07 2.09.85 3.31.48a16.54 16.54 0 007-4.44c.68-.74-.53-1.85-1.21-1.12zM88.57 46.87A26.06 26.06 0 0190.63 42c.45-.81-1.5-2.51-2-1.51a25.81 25.81 0 00-2.07 4.91c-.33.88 1.7 2.49 2.01 1.47zM108.16 50.81c-2.73 1.29-5.74 2.53-8.51 3.92a38.35 38.35 0 011.87-3.44c.5-.82-.8-2.23-1.68-1.95A21.51 21.51 0 0094 52.18a1.09 1.09 0 01.08-.15c.45-.8-1.5-2.5-2.06-1.51l-.44.82A22.39 22.39 0 0184.67 55c.06-.18.13-.35.19-.52a23.82 23.82 0 011.75-3.59c.46-.79-1.48-2.5-2-1.51-.86 1.48-2.19 3.5-2.15 5.26a2.75 2.75 0 003.07 2.67 11.21 11.21 0 003.78-2l.74-.53c-.19.52-.36 1.05-.5 1.58-.18.71 1.29 2.47 2 1.67a21 21 0 016-4.95 7.85 7.85 0 00-.83 2.36 2.11 2.11 0 002.46 2.36 14.48 14.48 0 003.82-2.15 61 61 0 015.94-3.38c1.06-.47.06-1.86-.78-1.46zM173.8 50.8a38.88 38.88 0 01-7.65 3.29 27.16 27.16 0 00.85-2.59 3.07 3.07 0 00-.69-3.08c-1.12-1.06-2.16-.55-3.33.14a37.23 37.23 0 00-6.54 4.81c.31-.86.62-1.72.95-2.57q1.14-2.91 2.47-5.72a56.17 56.17 0 014.81-8.82c.58-.87-1.34-2.61-1.85-1.84A61.69 61.69 0 00157 45.33c-.84 1.87-1.6 3.78-2.3 5.7-3 1.28-9.3 3.53-11.12 3.69-.15 0-.5-.08-.14-1.09s1.58-3.28 3.09-2.39c.44.25 1 .18 1-.38s-.63-1.18-1.08-1.45c-2.16-1.27-4.27.36-5.08 2.43-1.92 1.52-5 3.6-6.94 3.83h-.1a12.21 12.21 0 01.44-1.81 8.36 8.36 0 00.51-1.82.49.49 0 000-.36 1.89 1.89 0 00-.92-1.23 1.13 1.13 0 00-.89-.26l-.66.2a3.33 3.33 0 00-4.73-.59 9.16 9.16 0 00-1.88 2c-2.72 1.75-7.29 3.9-9.33 4.16a7.22 7.22 0 01.31-.89c1.44-.68 6.74-2.73 4.49-5.09-1.57-1.64-3.67-.18-4.85 1.11-1.31 1.44-3.17 4.26-1.73 6.19.93 1.24 2.28 1.15 3.59.68a31.05 31.05 0 005.94-3 11.86 11.86 0 00-.35 1.22c-.17.77.94 2.11 1.78 1.78 2.41-.94 4.18-3 6.3-4.42a3.44 3.44 0 00-.09 2.11 3.15 3.15 0 002.53 2.22 5.59 5.59 0 003.32-1.07 26.58 26.58 0 003-2.14 3 3 0 001.31 1.77c2 1.22 4.29-.13 6.13-.94l5.45-2.42a3.43 3.43 0 001.1 4c.26.2.89.5 1.18.18a33.94 33.94 0 018.57-6.84c-.15.54-.38 1.07-.57 1.6a5.84 5.84 0 00-.49 2.36 2.44 2.44 0 003.38 2c2.65-.88 5.13-2.65 7.54-4 1.02-.63-.11-2.03-.91-1.57zm-45.58 2.74l.05-.07a9.14 9.14 0 011.43-1.55 3 3 0 011.17-.7l.46-.08a26.54 26.54 0 00-3.11 2.4zM187.32 50.3c.58-.65-.91-2.31-1.68-1.92-2.54 1.27-7 5.66-4.33 8.67 1.46 1.61 3.31.93 4.5-.59a7.89 7.89 0 001.63-5.73 1.62 1.62 0 00-.12-.43zm-2.59 3.08a6.59 6.59 0 01-1.12 1.62 7.39 7.39 0 01-.88.71c0-.2.06-.42.09-.49a5.77 5.77 0 01.34-.81 7.65 7.65 0 011-1.61 8.89 8.89 0 011.08-1.13 6.68 6.68 0 01-.51 1.71z"/><path class="cls-1" d="M226.91 50.22c-.29-.87-1.73-1.86-2-1-.24.67-.5 1.34-.76 2-2.52 1.82-7.88 4.43-10.15 4.72a5.92 5.92 0 01.32-.89c1.43-.68 6.73-2.73 4.48-5.09-1.47-1.53-3.4-.35-4.61.87a39.63 39.63 0 01-7.64 3.28 27.16 27.16 0 00.87-2.59 3.07 3.07 0 00-.69-3.08c-1.12-1.06-2.16-.55-3.33.14a37.23 37.23 0 00-6.54 4.81c.31-.86.62-1.72.95-2.57q1.14-2.91 2.47-5.72 1-2.07 2.09-4.08h.93a16.44 16.44 0 016.7 1.49c.44.23 1 .2 1-.37s-.63-1.21-1.08-1.45a17.71 17.71 0 00-6.44-1.76q1.38-2.4 2.91-4.71c.58-.87-1.33-2.62-1.85-1.84-1.38 2.07-2.67 4.2-3.88 6.37h-3.36c.61-1.31 1.24-2.62 1.86-3.91.4-.85-1.57-2.52-2.06-1.51-.86 1.81-1.73 3.63-2.57 5.47a85.84 85.84 0 00-13.85 1.54c-1 .19.55 2.24 1.5 2.06a83.53 83.53 0 0111.38-1.4c-3.21 7.35-5.76 15-5.63 23.12 0 .91 2.14 2.33 2.12 1.07-.14-8.55 2.79-16.59 6.28-24.29h3.22c-.76 1.46-1.49 2.93-2.16 4.44-1 2.22-1.9 4.49-2.7 6.79-.66 1.88-.92 3.57.81 4.94.26.2.89.5 1.18.18a33.94 33.94 0 018.57-6.84c-.15.54-.38 1.07-.57 1.6a5.84 5.84 0 00-.49 2.36 2.44 2.44 0 003.38 2 22.61 22.61 0 004.37-2.13 3.17 3.17 0 00.25 3.05c.93 1.24 2.28 1.15 3.6.68a35.45 35.45 0 007.21-3.9c-.28.72-.57 1.44-.84 2.16s1.58 2.53 2.06 1.5a15 15 0 012.71-4 14.21 14.21 0 011.61-1.49 5.72 5.72 0 012-1.1 1.44 1.44 0 001.12.62c.56-.06.64-.6.37-1-1.36-2.34-3.3-1.93-5.12-.54zM241.63 50.64a46.54 46.54 0 00-4.74 1.78l-.58-.65c-.49-.59-.87-2.05.42-2 .62 0 .55-.67.38-1a2 2 0 00-1.45-1.08c-2-.14-2.29 2.09-1.57 3.49a11.89 11.89 0 001.65 2.08c-2.21 1.8-3.75 4-1.58 5.83 2 1.67 3.94-.82 4.21-2.75a4 4 0 00-.14-1.75 16.8 16.8 0 014.09-2.3c1.02-.38.2-2-.69-1.65zM245.6 42.52c-.52 1.71-.47 2.53-1.32 4.1-.44.81.84 2.6 1.38 1.6a19.71 19.71 0 002-4.2c.28-.92-1.75-2.52-2.06-1.5zM355.6 57.45l-.27-.1a.8.8 0 00-.46 0 2.79 2.79 0 00-.92.79.67.67 0 00-.09.63 2 2 0 00.5.81 1.87 1.87 0 00.8.5c.19 0 .51.09.64-.1a2.44 2.44 0 01.61-.59.34.34 0 00.19-.18.38.38 0 00.08-.3 1.55 1.55 0 00-.31-.79 2.33 2.33 0 00-.77-.67zM267.84 50.22c.57-.65-.91-2.31-1.69-1.92a12 12 0 00-3.28 2.6c-2.93 1.27-9.4 3.58-11.24 3.74-.15 0-.5-.08-.14-1.09s1.58-3.28 3.09-2.39c.44.26 1 .18 1-.38s-.63-1.18-1.08-1.45c-3.85-2.27-7.56 4.71-4 7 2 1.22 4.29-.13 6.13-.94l4.61-2a3.31 3.31 0 00.52 3.64c1.46 1.61 3.31.93 4.51-.59a7.93 7.93 0 001.73-5.79 2.09 2.09 0 00-.16-.43zm-2.6 3.08a6.41 6.41 0 01-1.12 1.7 7.39 7.39 0 01-.88.71c0-.2.07-.42.09-.49a5.77 5.77 0 01.34-.81 7.31 7.31 0 011-1.61 9.62 9.62 0 011.08-1.13 6.7 6.7 0 01-.51 1.63zM302.15 48.22c-1.43-1.35-2.84-.51-4.11.57a20.33 20.33 0 00-3 3.13c.27-.8.54-1.61.82-2.41S294.2 47 293.85 48s-.69 2-1 3.07a31.89 31.89 0 01-7.37 3.93 2.12 2.12 0 000-.56 2.76 2.76 0 00-1.62-2.15 2.58 2.58 0 00-2.44.32c-.28.17-.57.35-.84.54a5.69 5.69 0 00.3-2 2.08 2.08 0 00-3-1.69 29.52 29.52 0 00-5.88 3.6q.25-.56.54-1.11c.43-.82-1.53-2.51-2.06-1.51a17.26 17.26 0 00-1.83 5.86c-.09.69 1.33 2.11 2 1.46a33.37 33.37 0 014.35-3.69q1.26-.87 2.61-1.62c.25-.14.57-.35.91-.55-.09.29-.18.56-.23.78l-.6 2.67c-.19.83 1.11 2.27 1.95 1.67l2.22-1.58c.37-.26.73-.56 1.11-.79a2.33 2.33 0 01.27-.13.2.2 0 000 .07 2.73 2.73 0 00-.05 1.27 2.31 2.31 0 002.25 1.63 6.38 6.38 0 002.7-1 35.19 35.19 0 003.7-2.49q-2.11 6.26-4.24 12.5c-.31.9 1.7 2.53 2.06 1.5a52.79 52.79 0 015.48-11.6c.29.55.91 1.14 1.4 1.14 2.8 0 5.35-3.1 6.26-5.49a3.4 3.4 0 00-.65-3.83zm-1.53 2.54c-.75 1.75-2.72 4.38-4.84 4.62.49-.7 1-1.38 1.52-2a20 20 0 012.58-2.71c.22-.18.44-.37.68-.53a1.85 1.85 0 01.27-.19 3.41 3.41 0 01-.21.81zM354.52 50.74a39 39 0 00-6.37 3.8c.63-1.68 1.21-3.4 1.72-5.14.22-.74-1.23-2.4-1.95-1.67A40.13 40.13 0 01343 52a31.93 31.93 0 01-2.78 1.85 7.27 7.27 0 01-2.05.94 9.2 9.2 0 011.83-3.57c.65-.8-1.24-2.6-1.84-1.85a10.64 10.64 0 00-1 1.53c-2.63 1.22-5.51 2.42-8.16 3.75.58-1.17 1.17-2.31 1.87-3.44.5-.82-.8-2.23-1.68-2a21.51 21.51 0 00-5.84 2.84 1.09 1.09 0 01.08-.15c.45-.8-1.5-2.5-2.06-1.51-.11.21-.22.43-.34.64-1.71 1.47-5.54 4.24-7.78 4.51h-.09a10.14 10.14 0 01.44-1.81 8.93 8.93 0 00.5-1.82.54.54 0 000-.36 2 2 0 00-.92-1.23 1.14 1.14 0 00-.89-.26l-.67.2a3.33 3.33 0 00-4.73-.59 10.92 10.92 0 00-3.8 6.3c-.17.77.94 2.12 1.78 1.78 2.42-.94 4.18-3 6.3-4.42a3.51 3.51 0 00-.09 2.11 3.15 3.15 0 002.53 2.22 5.57 5.57 0 003.32-1.07 26.42 26.42 0 002.25-1.55c-.13.38-.25.76-.35 1.15-.18.71 1.28 2.47 1.95 1.67a20.94 20.94 0 016-4.94 8.27 8.27 0 00-.83 2.35 2.11 2.11 0 002.46 2.36 14.48 14.48 0 003.94-2.13c1.28-.79 2.56-1.58 3.87-2.3a10.12 10.12 0 00-.31 1.76c-.05.56.62 1.24 1.08 1.45 2.42 1.08 4.58-.4 6.57-1.73.92-.61 1.81-1.27 2.67-2q-1.11 3-2.47 5.8l-1.12 1.12a51.25 51.25 0 00-4.32 4.88c-1.48 2-2.79 4.26-2.09 6.79.13.47 1.38 1.94 1.94 1.21a71.48 71.48 0 007.52-12.23 53.38 53.38 0 0110-8.06c.93-.47-.37-1.9-1.17-1.45zm-47.59 2.72l.05-.07a9.53 9.53 0 011.43-1.55 3 3 0 011.17-.7l.46-.08a27.38 27.38 0 00-3.11 2.4z"/></g></g></svg>