<?xml version="1.0" standalone="no"?>
<!DOCTYPE svg PUBLIC "-//W3C//DTD SVG 20010904//EN"
 "http://www.w3.org/TR/2001/REC-SVG-20010904/DTD/svg10.dtd">
<svg version="1.0" xmlns="http://www.w3.org/2000/svg"
 width="300.000000pt" height="300.000000pt" viewBox="0 0 300.000000 300.000000"
 preserveAspectRatio="xMidYMid meet">
<metadata>
Created by potrace 1.11, written by Peter Selinger 2001-2013
</metadata>
<g transform="translate(0.000000,300.000000) scale(0.100000,-0.100000)"
fill="#000000" stroke="none">
<path d="M0 1500 l0 -1500 1500 0 1500 0 0 1500 0 1500 -1500 0 -1500 0 0
-1500z m2910 0 l0 -1410 -1410 0 -1410 0 0 1410 0 1410 1410 0 1410 0 0 -1410z"/>
<path d="M915 2370 l-29 -30 48 -49 c38 -38 47 -53 41 -70 -6 -21 -9 -21 -336
-21 l-330 0 3 -47 3 -46 355 -119 c269 -89 359 -124 372 -141 15 -19 18 -48
18 -231 l0 -210 170 -171 c143 -144 170 -175 170 -200 0 -25 -27 -57 -170
-200 l-170 -171 35 -34 35 -34 173 172 c130 130 178 172 197 172 19 0 67 -42
197 -172 l173 -172 35 34 35 34 -170 171 c-143 143 -170 175 -170 200 0 25 27
56 170 200 l170 171 0 210 c0 183 3 212 18 231 13 17 103 52 372 141 l355 119
3 46 3 47 -330 0 c-327 0 -330 0 -336 21 -6 17 4 32 41 70 l48 49 -32 33 -33
32 -99 -101 -100 -101 0 -370 0 -369 -28 -27 -28 -27 -294 0 -294 0 -28 27
-28 27 0 369 0 370 -97 98 c-53 55 -100 99 -103 99 -3 0 -19 -14 -35 -30z"/>
</g>
</svg>
